# AST/ASF file generated using VICON BodyLanguage
# -----------------------------------------------
:version 1.10
:name VICON
:units
  mass 1.0
  length 0.45
  angle deg
:documentation
   .ast/.asf automatically generated from VICON data using
   VICON BodyBuilder and BodyLanguage model FoxedUp or BRILLIANT.MOD
:root
   order TX TY TZ RX RY RZ
   axis XYZ
   position 0 0 0  
   orientation 0 0 0 
:bonedata
  begin
     id 1 
     name lhipjoint
     direction 0.635376 -0.686425 0.353719 
     length 2.47244 
     axis 0 0 0  XYZ
  end
  begin
     id 2 
     name lfemur
     direction 0.34202 -0.939693 0  
     length 7.25268  
     axis 0 0 20  XYZ
    dof rx ry rz
    limits (-160.0 20.0)
           (-70.0 70.0)
           (-60.0 70.0)
  end
  begin
     id 3 
     name ltibia
     direction 0.34202 -0.939693 0   
     length 7.6767   
     axis 0 0 20   XYZ
    dof rx
    limits (-10.0 170.0)
  end
  begin
     id 4 
     name lfoot
     direction 0.0803374 -0.220725 0.972022   
     length 2.22945   
     axis -90 7.62852e-016 20   XYZ
    dof rx rz
    limits (-45.0 90.0)
           (-70.0 20.0)
  end
  begin
     id 5 
     name ltoes
     direction 1.53579e-011 -4.21994e-011 1   
     length 1.11848   
     axis -90 7.62852e-016 20   XYZ
    dof rx
    limits (-90.0 20.0)
  end
  begin
     id 6 
     name rhipjoint
     direction -0.664428 -0.664335 0.342336   
     length 2.55466  
     axis 0 0 0  XYZ 
  end
  begin
     id 7 
     name rfemur
     direction -0.34202 -0.939693 0   
     length 6.83172   
     axis 0 0 -20   XYZ
    dof rx ry rz
    limits (-160.0 20.0)
           (-70.0 70.0)
           (-70.0 60.0)
  end
  begin
     id 8 
     name rtibia
     direction -0.34202 -0.939693 0   
     length 7.62692   
     axis 0 0 -20   XYZ
    dof rx
    limits (-10.0 170.0)
 end
 begin
     id 9 
     name rfoot
     direction -0.0949276 -0.260811 0.960711   
     length 2.19684  
     axis -90 -7.62852e-016 -20   XYZ
    dof rx rz
    limits (-45.0 90.0)
           (-20.0 70.0)
  end
  begin
     id 10 
     name rtoes
     direction -1.53543e-011 -4.2183e-011 1   
     length 1.09848   
     axis -90 -7.62852e-016 -20   XYZ
    dof rx
    limits (-90.0 20.0)
  end
  begin
     id 11 
     name lowerback
     direction 0.0118782 0.999815 -0.0151555   
     length 2.15772   
     axis 0 0 0   XYZ
    dof rx ry rz
    limits (-20.0 45.0)
           (-30.0 30.0)
           (-30.0 30.0)
  end
  begin
     id 12 
     name upperback
     direction 0.00130825 0.999065 0.0432113   
     length 2.14863   
     axis 0 0 0   XYZ
    dof rx ry rz
    limits (-20.0 45.0)
           (-30.0 30.0)
           (-30.0 30.0)
  end
  begin
     id 13 
     name thorax
     direction -0.00347005 0.998773 0.0494011   
     length 2.14936   
     axis 0 0 0   XYZ
    dof rx ry rz
    limits (-20.0 45.0)
           (-30.0 30.0)
           (-30.0 30.0)
  end
  begin
     id 14 
     name lowerneck
     direction -0.0262159 0.99424 0.103921   
     length 1.69373   
     axis 0 0 0   XYZ
    dof rx ry rz
    limits (-20.0 45.0)
           (-30.0 30.0)
           (-30.0 30.0)
  end
  begin
     id 15 
     name upperneck
     direction 0.0353511 0.977394 -0.20845   
     length 1.70857   
     axis 0 0 0   XYZ
    dof rx ry rz
    limits (-20.0 45.0)
           (-30.0 30.0)
           (-30.0 30.0)
  end
  begin
     id 16
     name head
     direction 0.0139214 0.996594 -0.0812836  
     length 1.72777  
     axis 0 0 0   XYZ
    dof rx ry rz
    limits (-20.0 45.0)
           (-30.0 30.0)
           (-30.0 30.0)
  end
  begin
     id 17 
     name lclavicle
     direction 0.841247 0.537205 -0.0609508  
     length 3.55371  
     axis 0 0 0   XYZ
    dof ry rz
    limits (-20.0 10.0)
           (0.0 20.0)
  end
  begin
     id 18 
     name lhumerus
     direction 1 -4.48964e-011 1.60116e-018   
     length 4.91377   
     axis -180 -30 -90   XYZ
    dof rx ry rz
    limits (-60.0 90.0)
           (-90.0 90.0)
           (-90.0 90.0)
  end
  begin
     id 19
     name lradius
     direction 1 -4.48989e-011 -8.93847e-027   
     length 3.00291   
     axis -180 -30 -90   XYZ
    dof rx
    limits (-10.0 170.0)
  end
  begin
     id 20
     name lwrist
     direction 1 -4.48932e-011 -7.31504e-027   
     length 1.50145   
     axis 5.74121e-015 90 90   XYZ
    dof ry
    limits (-180.0 0.0)
 end
  begin
     id 21 
     name lhand
     direction 1 -4.48971e-011 -1.46301e-026   
     length 0.450922   
     axis 9.33524e-015 90 90   XYZ
    dof rx rz
    limits (-90.0 90.0)
           (-45.0 45.0)
  end
  begin
     id 22 
     name lfingers
     direction 1 -4.49039e-011 -2.92602e-026   
     length 0.363545   
     axis 1.86705e-014 90 90   XYZ
    dof rx
    limits (0.0 90.0)
  end
  begin
     id 23
     name lthumb
     direction 0.707107 -6.34941e-011 0.707107   
     length 0.52198   
     axis -90 45 2.85299e-015   XYZ
    dof rx rz
    limits (-45.0 45.0)
           (-45.0 45.0)
  end
  begin
     id 24 
     name rclavicle
     direction -0.825079 0.56158 -0.0622297   
     length 3.39909  
     axis 0 0 0   XYZ 
    dof ry rz
    limits (-10.0 20.0)
           (-20.0 0.0)
  end
  begin
     id 25 
     name rhumerus
     direction -1 -4.48965e-011 1.61691e-027  
     length 4.86725   
     axis -180 30 90   XYZ
    dof rx ry rz
    limits (-90.0 60.0)
           (-90.0 90.0)
           (-90.0 90.0)
  end
  begin
     id 26 
     name rradius
     direction -1 -4.48964e-011 -2.25776e-027   
     length 3.17144   
     axis -180 30 90   XYZ
    dof rx
    limits (-10.0 170.0)
  end
  begin
     id 27 
     name rwrist
     direction -1 -4.48961e-011 -7.31504e-027   
     length 1.58572   
     axis 5.74121e-015 -90 -90   XYZ
    dof ry
    limits (-180.0 0.0)
  end
  begin
     id 28
     name rhand
     direction -1 -4.49013e-011 -1.46301e-026   
     length 0.419368   
     axis 9.33524e-015 -90 -90   XYZ
    dof rx rz
    limits (-90.0 90.0)
           (-45.0 45.0)
  end
  begin
     id 29
     name rfingers
     direction -1 -4.489e-011 -2.92602e-026   
     length 0.338105   
     axis 1.86705e-014 -90 -90   XYZ
    dof rx
    limits (0.0 90.0)
  end
  begin
     id 30
     name rthumb
     direction -0.707107 -6.35022e-011 0.707107   
     length 0.485453   
     axis -90 -45 -2.85299e-015   XYZ
    dof rx rz
    limits (-45.0 45.0)
           (-45.0 45.0)
  end
:hierarchy
  begin
    root lhipjoint rhipjoint lowerback
    lhipjoint lfemur
    lfemur ltibia
    ltibia lfoot
    lfoot ltoes
    rhipjoint rfemur
    rfemur rtibia
    rtibia rfoot
    rfoot rtoes
    lowerback upperback
    upperback thorax
    thorax lowerneck lclavicle rclavicle
    lowerneck upperneck
    upperneck head
    lclavicle lhumerus
    lhumerus lradius
    lradius lwrist
    lwrist lhand lthumb
    lhand lfingers
    rclavicle rhumerus
    rhumerus rradius
    rradius rwrist
    rwrist rhand rthumb
    rhand rfingers
  end

#!OML:ASF H:\Swim 2\Project 1\Capture day 1\Session 1\male.ASF
:FULLY-SPECIFIED
:DEGREES
79
root 1.43866 14.9253 10.7156 100.456 -11.1888 0.209607
lowerback -5.074 0.998114 18.9791
upperback -4.52193 0.608242 -7.25527
thorax -1.92256 -0.362032 -19.386
lowerneck -14.2421 1.82358 -2.0433
upperneck 48.2401 3.31272 0.314712
head 22.6961 0.81775 1.28958
rclavicle -9.14409e-015 1.52195e-014
rhumerus 104.042 -17.3293 -39.5025
rradius 30.728
rwrist -16.4779
rhand -18.9329 -17.8684
rfingers 7.12502
rthumb 7.36993 -47.72
lclavicle -9.14409e-015 1.52195e-014
lhumerus 74.3271 29.6372 -17.8979
lradius 34.9709
lwrist 36.9847
lhand -46.4556 -27.9667
lfingers 7.12502
lthumb -19.1839 1.10716
rfemur -56.2085 11.4514 -4.17538
rtibia 11.5591
rfoot 0.324362 -15.4682
rtoes -9.6327
lfemur -42.5171 5.7165 -26.0003
ltibia 42.6638
lfoot -4.00004 24.1083
ltoes 24.7243
80
root 1.42175 14.9156 10.7273 100.796 -10.7654 0.624402
lowerback -5.76437 1.14885 18.9411
upperback -4.71823 0.697005 -7.16939
thorax -1.71073 -0.305867 -19.2416
lowerneck -14.2202 1.75481 -2.14956
upperneck 48.1682 3.2102 0.430475
head 22.6141 0.783264 1.35146
rclavicle 1.0138e-014 -6.39093e-014
rhumerus 104.113 -17.1296 -39.606
rradius 30.6253
rwrist -16.2441
rhand -18.9545 -17.6697
rfingers 7.12502
rthumb 7.34909 -47.5221
lclavicle 1.0138e-014 -6.39093e-014
lhumerus 74.279 29.5269 -17.9904
lradius 34.9224
lwrist 37.289
lhand -46.8143 -28.3791
lfingers 7.12502
lthumb -19.5288 0.660117
rfemur -56.6541 10.4736 -1.96109
rtibia 13.6127
rfoot 1.18559 -11.0089
rtoes -10.431
lfemur -43.6773 6.48893 -26.1591
ltibia 43.576
lfoot -4.09288 24.3842
ltoes 24.9749
81
root 1.40458 14.906 10.737 101.16 -10.3367 1.00364
lowerback -6.44246 1.30482 18.9007
upperback -4.91433 0.795443 -7.07836
thorax -1.50252 -0.245002 -19.0881
lowerneck -14.0537 1.71795 -2.29142
upperneck 47.8704 3.12923 0.599499
head 22.2657 0.764594 1.44217
rclavicle -2.73329e-015 1.63966e-014
rhumerus 104.175 -16.9464 -39.6694
rradius 30.5542
rwrist -16.0256
rhand -19.0556 -17.5312
rfingers 7.12502
rthumb 7.2515 -47.3869
lclavicle -2.73329e-015 1.63966e-014
lhumerus 74.1303 29.4447 -18.1803
lradius 34.8985
lwrist 37.5129
lhand -47.2246 -28.6424
lfingers 7.12502
lthumb -19.9232 0.356375
rfemur -57.1731 9.79952 -0.125563
rtibia 15.6192
rfoot 1.95765 -7.05546
rtoes -10.7586
lfemur -44.9144 7.2064 -26.3279
ltibia 44.3965
lfoot -4.26331 24.6969
ltoes 25.1443
82
root 1.38771 14.8967 10.7457 101.513 -9.90124 1.36721
lowerback -7.08647 1.45157 18.8792
upperback -5.09884 0.885944 -6.98212
thorax -1.30595 -0.189206 -18.9403
lowerneck -13.3498 1.72398 -2.53243
upperneck 47.337 3.05055 0.872592
head 21.3376 0.767609 1.54362
rclavicle -1.33745e-014 -4.47832e-014
rhumerus 104.23 -16.785 -39.6809
rradius 30.5216
rwrist -15.8277
rhand -19.2353 -17.4475
rfingers 7.12502
rthumb 7.07799 -47.3092
lclavicle -1.33745e-014 -4.47832e-014
lhumerus 73.9377 29.3901 -18.3557
lradius 34.886
lwrist 37.6629
lhand -47.6626 -28.813
lfingers 7.12502
lthumb -20.3442 0.141439
rfemur -57.7031 9.35746 1.43238
rtibia 17.5968
rfoot 2.7567 -3.53859
rtoes -10.7381
lfemur -46.1684 7.82201 -26.4821
ltibia 45.0897
lfoot -4.54581 25.0122
ltoes 25.239
83
root 1.37191 14.8878 10.755 101.811 -9.47835 1.73894
lowerback -7.66266 1.57384 18.8836
upperback -5.26164 0.952524 -6.89044
thorax -1.13581 -0.14807 -18.8173
lowerneck -13.0597 1.74408 -2.74698
upperneck 46.817 3.01522 1.15268
head 20.8307 0.77239 1.69999
rclavicle 5.41688e-015 -5.19791e-014
rhumerus 104.283 -16.6379 -39.6665
rradius 30.5119
rwrist -15.6278
rhand -19.4419 -17.41
rfingers 7.12502
rthumb 6.87858 -47.2782
lclavicle 5.41688e-015 -5.19791e-014
lhumerus 73.6812 29.3584 -18.58
lradius 34.9111
lwrist 37.7804
lhand -48.0913 -28.9063
lfingers 7.12502
lthumb -20.7561 0.00365955
rfemur -58.1819 9.06438 2.78352
rtibia 19.5594
rfoot 3.64385 -0.412921
rtoes -10.4328
lfemur -47.3642 8.28423 -26.6133
ltibia 45.625
lfoot -4.94768 25.3075
ltoes 25.2992
84
root 1.35779 14.8797 10.7655 102.037 -9.06573 2.12032
lowerback -8.15537 1.66833 18.9259
upperback -5.3982 0.992317 -6.80346
thorax -0.996825 -0.123487 -18.7277
lowerneck -12.7771 1.77952 -2.95217
upperneck 46.3283 3.00221 1.42622
head 20.3661 0.785687 1.85261
rclavicle 6.95746e-015 -3.86574e-014
rhumerus 104.33 -16.5124 -39.6199
rradius 30.5248
rwrist -15.4492
rhand -19.6816 -17.392
rfingers 7.12502
rthumb 6.64724 -47.2677
lclavicle 6.95746e-015 -3.86574e-014
lhumerus 73.4584 29.3395 -18.6951
lradius 34.952
lwrist 37.8405
lhand -48.4777 -29.005
lfingers 7.12502
lthumb -21.1274 -0.136117
rfemur -58.5753 8.84553 4.01653
rtibia 21.4992
rfoot 4.67288 2.37751
rtoes -9.89083
lfemur -48.4598 8.56352 -26.6894
ltibia 45.9917
lfoot -5.49015 25.5719
ltoes 25.295
